<?xml version="1.0" standalone="no"?>
<!DOCTYPE svg PUBLIC "-//W3C//DTD SVG 20010904//EN"
 "http://www.w3.org/TR/2001/REC-SVG-20010904/DTD/svg10.dtd">
<svg version="1.0" xmlns="http://www.w3.org/2000/svg"
 width="499.000000pt" height="499.000000pt" viewBox="0 0 499.000000 499.000000"
 preserveAspectRatio="xMidYMid meet">
<metadata>
Created by potrace 1.14, written by Peter Selinger 2001-2017
</metadata>
<g transform="translate(0.000000,499.000000) scale(0.100000,-0.100000)"
fill="#000000" stroke="none">
<path d="M2367 4714 c-1 -2 -58 -5 -127 -9 -103 -4 -323 -31 -416 -49 -130
-26 -309 -77 -479 -136 -317 -111 -670 -317 -990 -577 l-60 -49 1 -55 c2 -58
10 -163 18 -217 3 -18 8 -52 11 -75 10 -70 34 -199 45 -242 5 -22 13 -56 16
-75 3 -19 11 -57 19 -85 7 -27 23 -86 35 -130 29 -106 133 -421 158 -476 11
-24 33 -78 50 -119 66 -167 72 -177 98 -172 13 2 24 8 24 12 0 4 17 11 38 16
54 12 53 12 94 13 35 1 36 2 28 29 -4 15 -18 50 -30 77 -53 118 -67 152 -79
185 -8 19 -19 49 -26 65 -44 102 -161 493 -182 604 -2 14 -6 28 -8 31 -6 10
-46 189 -52 230 -2 19 -8 58 -14 86 -5 29 -12 84 -14 123 l-4 71 67 53 c196
158 441 301 702 412 36 15 79 33 95 40 67 29 252 87 348 110 95 23 121 28 202
41 17 2 41 6 55 9 56 11 162 23 260 31 57 4 430 4 495 -1 90 -6 210 -20 265
-31 14 -2 36 -6 50 -9 14 -3 50 -9 80 -15 30 -6 66 -12 80 -15 14 -3 79 -21
145 -40 66 -19 127 -37 135 -39 8 -2 51 -18 96 -34 273 -100 519 -237 783
-435 l94 -71 -6 -80 c-4 -45 -9 -92 -11 -106 -3 -14 -7 -43 -10 -65 -8 -70
-17 -118 -33 -185 -8 -36 -17 -78 -20 -95 -2 -16 -20 -84 -39 -150 -19 -66
-36 -127 -38 -136 -3 -9 -9 -34 -15 -55 -17 -61 -14 -71 24 -84 20 -6 48 -21
63 -33 33 -27 68 -47 81 -47 10 0 19 22 27 67 3 15 10 33 16 40 6 7 8 13 5 13
-3 0 4 26 15 57 36 102 101 372 124 513 2 14 6 34 8 45 3 11 8 47 12 80 3 33
8 62 9 65 4 7 16 121 19 193 l3 57 -51 41 c-28 22 -58 45 -66 52 -261 206
-538 373 -800 483 -89 37 -359 131 -395 137 -17 3 -46 11 -65 16 -43 14 -217
48 -285 56 -27 4 -59 9 -70 12 -23 7 -40 8 -185 19 -98 7 -418 13 -423 8z"/>
<path d="M2185 3892 c-27 -10 -104 -51 -170 -93 -173 -110 -255 -146 -455
-204 -30 -8 -66 -17 -80 -19 -14 -3 -25 -5 -25 -6 0 -1 -9 -3 -20 -5 -11 -2
-36 -7 -55 -11 -19 -4 -42 -9 -50 -10 -8 -1 -46 -12 -85 -23 -38 -12 -81 -23
-95 -26 -32 -6 -105 -41 -131 -63 -45 -37 -79 -73 -79 -81 0 -5 -3 -11 -7 -13
-17 -7 -62 -86 -77 -134 -24 -73 -28 -166 -10 -216 24 -68 53 -70 54 -3 1 40
21 64 64 79 37 13 136 14 216 2 190 -28 184 -28 320 0 14 3 90 7 170 9 127 3
173 0 265 -20 34 -7 137 -35 205 -56 82 -25 129 -16 230 47 72 44 94 52 104
35 5 -8 88 -38 131 -47 31 -7 123 -6 135 1 5 3 10 2 10 -2 0 -21 -90 -41 -177
-41 -100 1 -117 -4 -108 -33 11 -35 8 -176 -5 -216 -7 -21 -24 -55 -37 -75
-12 -21 -23 -40 -23 -44 0 -3 -25 -44 -55 -90 -30 -47 -55 -87 -55 -91 0 -3
-15 -24 -33 -47 -18 -23 -50 -70 -71 -106 -20 -36 -47 -79 -59 -95 -92 -126
-147 -191 -221 -260 -103 -97 -112 -105 -126 -105 -5 0 -10 -4 -10 -10 0 -24
-131 -33 -153 -11 -13 13 7 83 28 101 12 10 16 9 21 -6 20 -66 32 -82 58 -77
14 3 26 10 26 16 0 6 3 8 6 4 3 -3 14 2 25 11 18 16 18 17 -3 39 -12 13 -26
23 -32 23 -6 0 -24 11 -41 24 l-30 24 17 48 c9 27 25 73 36 102 11 29 21 55
21 57 1 3 1 6 2 8 0 1 2 9 4 17 1 8 6 27 10 43 4 15 4 27 0 27 -17 0 -75 -43
-76 -56 -1 -8 -3 -23 -4 -34 -1 -11 -3 -25 -4 -30 -1 -12 -39 -9 -60 4 -18 12
-32 -13 -20 -36 5 -10 8 -18 5 -18 -3 0 1 -12 9 -26 14 -27 10 -54 -7 -54 -5
0 -23 9 -39 21 -35 25 -52 18 -39 -16 5 -14 7 -25 5 -25 -3 0 2 -18 11 -39 15
-38 14 -41 -10 -90 -33 -64 -33 -86 2 -121 22 -21 44 -30 97 -39 84 -14 171
-10 205 9 25 13 134 90 158 110 6 6 12 9 12 6 0 -2 10 4 23 14 12 11 85 70
161 132 150 121 290 252 331 308 14 19 39 78 56 132 16 53 36 104 44 112 8 8
15 22 15 30 0 9 3 16 8 16 4 0 16 14 27 30 33 49 46 37 25 -22 -27 -77 -16
-84 73 -46 200 85 322 270 322 490 0 60 6 63 22 13 12 -37 9 -183 -6 -247 -40
-173 -151 -322 -293 -394 -38 -19 -68 -39 -68 -45 0 -5 35 -26 78 -45 104 -46
123 -58 222 -130 147 -108 281 -265 325 -385 9 -24 21 -53 25 -64 14 -35 22
-68 29 -127 5 -44 4 -55 -6 -47 -6 6 -17 27 -24 47 -13 44 -70 142 -81 142 -4
0 -8 6 -8 13 0 14 -139 159 -189 197 -18 14 -39 31 -46 38 -8 6 -16 12 -19 12
-3 0 -27 15 -53 34 -58 41 -135 80 -185 94 -35 10 -37 9 -61 -26 -14 -21 -50
-62 -81 -94 -64 -64 -64 -55 1 -170 64 -116 150 -370 168 -498 2 -14 8 -56 14
-95 14 -87 21 -255 10 -255 -4 0 -23 49 -43 109 -19 59 -52 144 -72 187 -87
184 -231 367 -333 421 -38 20 -81 21 -81 2 0 -5 -5 -9 -11 -9 -6 0 -30 -16
-53 -35 -24 -19 -46 -35 -50 -35 -10 0 -99 -61 -108 -74 -4 -6 -6 -29 -3 -51
3 -22 8 -65 12 -95 14 -109 7 -443 -11 -525 -2 -11 -5 -22 -6 -25 -1 -8 -21
29 -26 50 -2 11 -6 29 -8 39 -11 47 -71 211 -97 263 -57 117 -129 198 -176
198 -11 0 -39 -7 -62 -15 -22 -8 -41 -12 -41 -10 0 3 -12 0 -27 -6 -16 -6 -46
-13 -68 -15 -56 -7 -101 -22 -116 -40 -20 -25 -70 -46 -113 -49 -57 -4 -56 -4
-56 -13 0 -14 50 -84 105 -149 70 -82 336 -349 401 -403 31 -25 63 -52 72 -60
60 -55 397 -290 415 -290 2 0 38 -20 81 -44 56 -32 86 -43 107 -41 70 9 395
208 562 345 330 270 649 636 889 1020 52 83 52 83 -1 110 -25 14 -62 40 -83
58 -59 54 -98 170 -76 230 4 12 10 34 12 48 3 14 12 48 21 74 16 48 16 49 -11
92 -40 63 -44 130 -11 195 27 52 56 73 142 98 35 11 40 16 39 41 -8 192 -263
557 -531 760 -40 30 -73 57 -73 59 0 13 261 -149 268 -167 2 -4 9 -8 16 -8 13
0 133 -126 199 -210 24 -30 47 -53 53 -50 5 3 7 10 5 15 -2 6 -7 25 -11 42
-26 111 -189 327 -318 423 -19 14 -46 35 -60 46 -87 69 -302 172 -471 225 -53
16 -103 34 -112 39 -27 14 -30 -1 -8 -37 12 -19 19 -37 15 -40 -8 -8 -113 30
-240 86 -92 42 -151 64 -251 93 -127 37 -213 43 -280 20z m155 -136 c54 -12
80 -17 85 -17 2 0 23 -6 45 -14 22 -8 40 -12 40 -9 0 3 6 2 13 -3 6 -4 18 -8
25 -9 8 -2 17 -6 20 -10 4 -4 -1 -4 -10 -1 -10 4 -18 3 -18 -2 0 -5 -18 -5
-40 -1 -22 4 -40 3 -40 -2 0 -5 -8 -5 -17 0 -10 4 -31 8 -48 7 -24 -1 -33 -8
-54 -49 -15 -29 -41 -59 -64 -74 -34 -23 -50 -26 -111 -25 -39 0 -89 4 -111 8
-25 4 -51 2 -70 -6 -16 -7 -38 -13 -47 -14 -10 -2 -20 -4 -23 -5 -3 -1 -9 -4
-15 -5 -5 -1 -11 -3 -12 -5 -4 -3 -29 -9 -68 -16 -19 -3 -38 -11 -42 -17 -6
-9 -8 -8 -8 1 0 7 -4 10 -10 7 -11 -7 -39 -13 -87 -19 -18 -3 -37 -7 -43 -11
-5 -3 -10 -2 -10 3 0 6 -9 8 -20 5 -11 -3 -17 -10 -13 -16 3 -6 1 -7 -6 -3 -6
4 -18 3 -26 -4 -8 -7 -15 -7 -19 -1 -3 5 -21 7 -39 4 -17 -3 -30 -3 -27 0 3 3
14 7 25 9 11 1 23 8 27 13 5 6 8 5 8 -4 0 -10 3 -11 14 -2 8 6 18 11 22 10 5
-1 12 0 17 1 4 1 12 4 17 5 6 1 11 3 13 5 1 1 17 3 36 5 18 2 38 8 44 14 5 5
16 7 23 4 8 -3 14 0 14 6 0 6 7 8 15 5 8 -4 15 -1 15 6 0 6 5 8 10 5 6 -4 24
1 41 9 17 9 35 13 40 10 5 -3 9 0 9 6 0 6 4 9 9 5 5 -3 12 -1 16 5 4 6 11 8
16 5 5 -4 9 -2 9 2 0 5 15 14 33 21 17 6 44 22 58 34 141 121 175 139 259 133
30 -2 66 -6 80 -9z m-1082 -334 c12 -7 22 -21 22 -31 0 -26 -75 -108 -105
-115 -14 -4 -23 -11 -20 -16 3 -5 0 -7 -7 -5 -10 4 -1 19 28 50 48 52 53 88
14 93 -33 5 -51 22 -23 22 12 0 24 4 27 8 7 12 36 8 64 -6z"/>
<path d="M2206 3698 c-28 -14 -34 -22 -30 -40 3 -13 6 -29 8 -36 8 -41 55 -30
86 20 29 47 27 78 -5 76 -13 -1 -40 -10 -59 -20z"/>
<path d="M2101 3636 c-29 -30 -31 -34 -14 -41 10 -4 31 -9 46 -11 27 -4 28 -3
22 33 -8 54 -17 57 -54 19z"/>
<path d="M1023 3014 c6 -37 44 -93 65 -93 6 -1 12 2 12 7 0 4 3 31 6 60 6 52
6 52 -22 53 -16 0 -37 2 -48 4 -16 3 -18 -1 -13 -31z"/>
<path d="M1634 3011 c10 -51 11 -53 24 -78 19 -34 39 -28 47 15 4 20 6 37 5
37 -1 0 3 12 9 28 9 23 8 27 -7 28 -9 1 -32 2 -51 4 -33 3 -33 3 -27 -34z"/>
<path d="M1793 3011 c6 -40 9 -51 27 -98 16 -44 27 -41 40 10 6 23 15 57 20
75 10 37 8 38 -53 44 l-39 4 5 -35z"/>
<path d="M949 3025 c-37 -20 -40 -44 -15 -106 21 -52 46 -76 46 -44 0 27 23
11 32 -21 4 -17 19 -41 33 -54 23 -22 25 -22 26 -4 1 10 1 23 0 27 -1 4 6 10
15 14 13 5 47 -27 49 -47 5 -37 53 -89 56 -60 1 5 3 15 4 20 1 6 3 15 4 20 1
6 10 5 23 -2 32 -18 41 -28 62 -71 22 -42 41 -48 43 -14 4 53 12 64 38 60 17
-4 30 -17 42 -44 9 -22 20 -39 24 -39 4 0 13 16 19 35 11 33 15 35 43 31 18
-3 33 -9 35 -15 2 -5 12 -19 22 -31 l19 -22 12 25 c7 15 18 24 28 22 9 -2 19
-4 24 -4 4 -1 12 -13 18 -28 10 -26 12 -27 23 -10 9 11 27 17 50 17 20 0 36 5
36 10 0 6 -4 11 -10 11 -13 2 -21 4 -40 11 -8 4 -26 9 -40 13 -14 3 -41 11
-60 16 -32 9 -66 18 -140 36 -14 3 -44 6 -67 7 -22 0 -39 5 -35 10 3 5 -2 7
-10 3 -9 -3 -19 -3 -23 1 -4 4 -10 7 -13 8 -33 3 -110 33 -181 71 -47 24 -97
47 -110 49 -38 8 -39 10 -36 64 4 55 -2 59 -46 35z"/>
<path d="M1160 3014 c0 -48 68 -166 71 -123 1 17 5 41 14 92 5 30 3 37 -9 37
-9 0 -16 5 -16 10 0 6 -13 9 -30 8 -24 -2 -30 -7 -30 -24z"/>
<path d="M1500 3028 c-13 -5 -26 -11 -29 -13 -7 -7 42 -124 55 -129 6 -2 11 1
12 7 0 7 7 36 16 65 8 30 13 59 10 66 -6 15 -32 17 -64 4z"/>
<path d="M1380 3014 c0 -5 -16 -9 -35 -8 -30 2 -35 -1 -35 -20 0 -13 3 -26 8
-30 4 -4 7 -11 7 -14 2 -22 37 -71 48 -66 20 7 37 122 20 136 -7 6 -13 6 -13
2z"/>
<path d="M1928 3008 c-8 -21 39 -158 53 -158 5 0 8 3 7 8 -2 9 13 63 21 77 16
27 11 56 -11 64 -54 20 -66 22 -70 9z"/>
<path d="M2087 2953 c20 -53 67 -133 77 -130 6 2 12 29 13 60 3 54 1 57 -27
72 -41 21 -71 20 -63 -2z"/>
<path d="M4205 2805 c-5 -2 -22 -6 -36 -9 -64 -14 -125 -112 -117 -188 3 -29
6 -31 49 -33 25 -2 62 -10 82 -19 l37 -15 1 47 c0 26 4 56 9 67 11 25 11 23
15 -48 3 -61 28 -112 56 -112 19 -1 28 26 17 49 -14 26 -20 96 -8 96 6 0 10 6
10 14 0 8 13 25 28 38 27 22 53 66 32 53 -6 -3 -10 -2 -10 3 0 22 -130 67
-165 57z"/>
<path d="M4399 2688 c-1 -7 -1 -16 0 -20 0 -4 -8 -5 -20 -3 -32 6 -56 -53 -41
-102 9 -31 22 -45 69 -73 81 -49 169 -139 177 -183 8 -41 32 -56 39 -24 13 52
-19 182 -66 269 -52 98 -154 184 -158 136z"/>
<path d="M2065 2663 c-33 -7 -71 -16 -85 -19 -13 -3 -30 -10 -36 -15 -7 -6
-25 -12 -41 -15 -20 -3 -24 -2 -13 5 8 5 18 7 22 5 4 -3 8 0 8 6 0 6 3 9 8 7
4 -3 12 1 19 8 17 18 -16 25 -64 14 -21 -4 -38 -7 -38 -7 0 1 -18 -7 -40 -17
-37 -17 -111 -73 -161 -120 -11 -11 -66 -63 -121 -117 -56 -53 -111 -99 -122
-103 -12 -3 -21 -10 -21 -14 0 -9 -19 -12 -87 -12 -60 0 -73 -16 -39 -48 32
-30 58 -36 156 -35 68 1 96 7 142 27 71 32 149 84 212 142 31 29 136 105 144
105 6 0 12 4 14 9 3 8 148 81 171 85 7 2 25 7 42 11 16 5 41 9 55 10 17 1 26
7 28 22 9 61 -55 88 -153 66z m-196 -67 c-2 -2 -15 -9 -29 -15 -24 -11 -24
-11 -6 3 16 13 49 24 35 12z"/>
<path d="M2236 2648 c-7 -21 -3 -48 6 -48 4 0 8 -8 8 -17 1 -22 23 -53 38 -53
6 0 18 10 26 22 18 25 9 48 -33 84 -30 27 -40 29 -45 12z"/>
<path d="M2155 2522 c6 -34 32 -87 49 -101 15 -13 19 -13 27 0 23 35 22 62 -2
80 -13 10 -30 19 -37 19 -7 0 -10 5 -7 10 3 6 -3 10 -14 10 -14 0 -19 -6 -16
-18z"/>
<path d="M3925 2494 c-22 -7 -41 -14 -42 -14 -1 0 -14 -17 -28 -37 -50 -74
-20 -157 84 -234 67 -49 173 -111 201 -116 79 -16 98 -11 90 22 -10 43 -15 99
-11 145 1 18 64 90 78 90 14 0 25 29 16 43 -16 26 -38 47 -50 47 -7 0 -13 4
-13 8 0 5 -32 19 -71 32 -85 28 -197 34 -254 14z"/>
<path d="M2070 2433 c0 -5 7 -26 14 -48 34 -96 53 -109 81 -55 21 41 20 46
-29 80 -44 29 -66 37 -66 23z"/>
<path d="M4322 2330 c-12 -5 -27 -21 -34 -35 -10 -22 -9 -27 8 -39 10 -8 22
-12 26 -10 5 3 8 1 8 -5 0 -5 9 -12 19 -16 11 -3 22 -12 24 -20 4 -9 -11 -6
-49 11 -30 13 -59 24 -64 24 -14 0 -12 -44 2 -93 10 -33 20 -43 55 -59 24 -11
52 -21 61 -23 65 -15 171 -50 227 -75 70 -32 90 -36 100 -20 3 6 1 10 -4 10
-6 0 -11 7 -11 15 0 8 -5 15 -11 15 -5 0 -8 4 -5 8 3 5 -6 21 -20 37 -13 15
-24 32 -24 37 0 14 -170 180 -222 216 -50 35 -52 35 -86 22z"/>
<path d="M1992 2321 c-17 -10 23 -140 45 -148 19 -7 63 42 63 69 0 10 -15 25
-32 34 -18 9 -40 25 -49 35 -8 10 -20 14 -27 10z"/>
<path d="M857 2216 c-53 -20 -101 -62 -119 -108 -5 -13 3 -22 38 -40 59 -29
86 -67 84 -116 -1 -20 -2 -42 -1 -49 2 -20 42 -1 52 25 16 42 -5 131 -36 154
-7 5 -7 8 0 8 20 0 35 -17 55 -63 22 -50 37 -52 70 -12 8 9 30 25 51 35 29 15
37 25 35 43 -5 47 -51 94 -120 124 -36 16 -61 16 -109 -1z"/>
<path d="M1895 2168 c11 -49 41 -122 52 -125 13 -5 63 46 63 63 0 11 -15 25
-66 61 -5 5 -20 14 -33 21 -22 13 -23 13 -16 -20z"/>
<path d="M3865 2133 c-24 -56 -27 -163 -5 -210 28 -61 104 -123 153 -123 35 0
37 6 16 61 -22 62 -16 82 41 136 32 31 38 42 28 50 -41 34 -96 6 -138 -72 -21
-39 -21 -39 -17 -9 6 39 22 69 45 86 37 27 33 43 -21 76 -81 49 -84 49 -102 5z"/>
<path d="M1771 2090 c-1 -18 24 -91 44 -130 8 -15 11 -30 8 -34 -13 -13 14 -5
37 11 34 23 50 40 50 51 0 10 -106 92 -120 92 -4 0 -11 6 -13 13 -4 8 -6 7 -6
-3z"/>
<path d="M697 2038 c-49 -37 -87 -238 -65 -343 17 -80 56 -146 59 -97 5 94 28
162 78 229 44 57 64 91 67 113 4 22 -27 80 -42 80 -8 0 -14 4 -14 9 0 5 -6 8
-12 7 -21 -3 -39 -17 -33 -26 3 -4 -3 -14 -13 -21 -15 -13 -16 -12 -3 4 7 9
10 17 7 17 -4 0 -2 9 4 20 13 24 -6 28 -33 8z"/>
<path d="M1180 2021 c-101 -29 -215 -114 -249 -185 -24 -52 -21 -66 12 -66 45
0 127 -64 127 -98 0 -10 3 -22 8 -26 4 -4 8 -26 9 -49 0 -23 2 -45 2 -49 3
-19 82 23 123 65 47 48 153 187 143 187 -3 0 2 14 10 31 32 60 14 146 -36 177
-39 25 -92 29 -149 13z"/>
<path d="M4091 1973 c-35 -27 -40 -57 -13 -81 9 -10 13 -14 8 -9 -18 13 -36 7
-36 -11 0 -23 38 -59 65 -61 63 -4 158 12 183 32 6 5 12 6 12 3 0 -4 13 2 29
13 16 12 34 21 41 21 6 0 10 8 8 17 -2 13 -16 17 -61 19 -32 1 -64 7 -71 13
-7 6 -15 9 -18 6 -3 -3 -18 7 -33 21 -45 42 -76 46 -114 17z"/>
<path d="M1364 1713 c-36 -39 -66 -91 -59 -103 3 -5 15 -10 26 -10 21 0 98
-65 88 -74 -5 -5 -19 4 -67 44 -20 18 -93 15 -104 -4 -14 -25 -11 -29 33 -44
59 -20 92 -59 89 -105 -1 -12 -2 -34 -1 -49 1 -26 3 -27 28 -17 30 11 66 49
90 94 24 44 21 131 -5 185 -21 44 -73 110 -86 110 -4 0 -18 -12 -32 -27z"/>
<path d="M867 1706 c-44 -43 -122 -228 -161 -380 -24 -90 -13 -94 64 -20 65
63 192 164 205 164 3 0 21 16 40 35 30 29 35 41 34 77 -1 54 -10 82 -27 86 -7
1 -42 -26 -78 -62 -35 -35 -64 -61 -64 -56 0 4 9 15 20 25 11 10 30 38 42 62
12 24 26 43 30 43 5 0 8 10 6 23 -2 18 -10 23 -45 25 -33 2 -46 -2 -66 -22z"/>
<path d="M1230 1492 c-20 -7 -32 -21 -55 -59 -11 -18 -22 -33 -25 -33 -4 0
-15 -8 -26 -18 -10 -10 -38 -29 -62 -42 -59 -33 -41 -45 71 -46 150 -2 204 26
212 109 3 23 -6 22 -41 -5 -25 -20 -27 -20 -14 -3 8 11 19 23 24 26 15 12 -3
57 -27 65 -31 11 -40 12 -57 6z"/>
</g>
</svg>
